<svg preserveAspectRatio="xMidYMid meet" data-bbox="19.504 28.491 160.807 142.464" viewBox="19.504 28.491 160.807 142.464" height="200" width="200" xmlns="http://www.w3.org/2000/svg" data-type="color" role="presentation" aria-hidden="true" aria-label=""><defs><style>#comp-l2iw4ah5 svg [data-color="1"] {fill: #FCF8EB;}</style></defs>
    <g>
        <path d="M138.832 83.334c-4.06-2.091-13.055-5.453-19.755-6.188-.107-3.349-.924-6.301-2.475-8.826-5.021-8.174-14.651-12.823-27.118-13.092-12.376-.272-26.111 3.826-38.646 11.525-14.433 8.865-26.928 25.419-30.386 40.256-1.765 7.573-1.056 14.183 2.05 19.114 5.207 8.267 16.958 12.023 29.759 12.023 10.896 0 22.551-2.726 31.577-7.706 7.028 7.831 16.686 14.471 27.83 19.039 10.079 4.132 20.573 6.225 30.188 6.225 7.733-.001 14.898-1.354 20.816-4.092 6.93-3.204 11.654-8.15 13.662-14.304 9.681-29.669-25.833-47.962-37.502-53.974zm-.458.889c7.644 3.938 25.681 13.232 34.111 27.519-.001.029-.009.057-.005.087 1.225 8.446-.533 14.494-5.208 18.004-12.249-26.846-50.083-35.203-52.257-35.661 2.663-6.042 4.033-11.398 4.083-16.017 6.557.749 15.308 4.025 19.276 6.068zm-23.827 11.009c.023-.049.042-.096.064-.145.035.016.068.037.107.045.393.078 39.422 8.104 51.698 35.233.007.015.023.022.031.036-13.814 8.898-45.284-3.988-46.086-4.361a.47.47 0 0 0-.069-.039c-.17-.081-9.414-4.539-18.007-11.188 2.586-3.094 8.275-10.91 12.262-19.581zm1.202-26.389c8.237 13.41-7.815 37.686-14.254 45.355-5.358-4.254-10.338-9.345-12.548-14.739.962-.739 19.951-15.529 18.253-29.347-.658-5.356-4.378-9.808-11.054-13.265 8.862 1.5 15.7 5.641 19.603 11.996zM72.527 107.86a.515.515 0 0 0-.185.063c-.242.143-24.339 14.123-38.967 7.777a15.831 15.831 0 0 1-3.293-1.941c.418-.904 5.958-12.57 17.662-23.034C58.867 80.78 78.002 69.93 106.05 74.547a19.417 19.417 0 0 1-.739 2.846.497.497 0 0 0-.185-.019c-16.053 1.54-26.768 7.791-30.985 18.079-1.591 3.876-2.118 8.065-1.614 12.407zm32.413-29.458c-3.826 9.754-14.53 18.61-16.352 20.066-.407-1.187-.693-2.385-.796-3.593-.469-5.485 2.559-10.578 8.994-15.139 2.531-.599 5.252-1.045 8.154-1.334zM51.361 67.605c12.374-7.6 25.916-11.636 38.101-11.378 1.225.026 2.413.107 3.58.219a.481.481 0 0 0 .128.089c7.958 3.454 12.345 8.062 13.038 13.697.135 1.1.115 2.211-.013 3.325-28.446-4.677-47.859 6.346-59.147 16.448-11.195 10.019-16.818 21.13-17.761 23.094-2.978-2.589-5.057-6.338-6.164-11.249-.007-.032-.026-.058-.039-.087 4.817-13.037 15.811-26.501 28.277-34.158zM23.348 125.59c-2.96-4.7-3.625-11.047-1.922-18.354a44.898 44.898 0 0 1 1.076-3.749c1.775 6.469 5.293 10.884 10.475 13.131 2.853 1.236 6.033 1.726 9.279 1.726 5.758 0 11.723-1.539 16.43-3.171 7.237-2.509 12.991-5.718 13.993-6.289.806 5.288 3.108 10.779 6.885 16.189a55.877 55.877 0 0 0 3.601 4.593c-21.152 11.573-51.224 9.568-59.817-4.076zm152.035 11.408c-1.92 5.883-6.46 10.622-13.131 13.707-13.031 6.025-32.269 5.202-50.205-2.151-13.436-5.508-24.68-14.05-31.663-24.054-6.936-9.937-8.826-20.118-5.32-28.668 3.028-7.386 9.587-12.616 19.199-15.429-5.401 4.405-7.918 9.293-7.468 14.559.602 7.042 6.365 14.565 17.13 22.359 7.964 5.767 15.86 9.545 15.938 9.582l.024-.05c2.371 1.424 19.376 7.673 33.358 7.672 2.938 0 5.746-.276 8.253-.932 9.032-2.359 13.139-8.934 12.239-19.548 3.308 6.657 4.464 14.319 1.646 22.953z" fill="#3C3C3B" data-color="1"></path>
        <path d="M149.245 52.563h.954l2.769-8.79 8.79-2.769v-.954l-8.79-2.769-2.769-8.79h-.954l-2.769 8.79-8.791 2.769v.954l8.791 2.769 2.769 8.79zm-2.22-14.406.327-.327 2.37-7.524 2.371 7.524.327.327 7.524 2.371-7.524 2.37-.327.327-2.371 7.524-2.37-7.524-.327-.327-7.525-2.37 7.525-2.371z" fill="#3C3C3B" data-color="1"></path>
        <path d="m175.93 72.298-1.38-4.382h-.954l-1.379 4.382-4.381 1.379v.954l4.381 1.38 1.379 4.381h.954l1.38-4.381 4.381-1.38v-.954l-4.381-1.379zm-.549 2.838-.327.327-.981 3.116-.981-3.116-.327-.327-3.116-.981 3.116-.981.327-.327.981-3.116.981 3.116.327.327 3.116.981-3.116.981z" fill="#3C3C3B" data-color="1"></path>
        <path d="M62.94 158.478h-.954l-1.38 4.382-4.381 1.38v.953l4.381 1.38 1.38 4.382h.954l1.38-4.382 4.381-1.38v-.953l-4.381-1.38-1.38-4.382zm.831 7.219-.327.326-.981 3.116-.981-3.116-.327-.326-3.115-.981 3.115-.981.327-.326.981-3.116.981 3.116.327.326 3.115.981-3.115.981z" fill="#3C3C3B" data-color="1"></path>
    </g>
</svg>
